<svg width="24" height="24" viewBox="0 0 24 24" fill="none" xmlns="http://www.w3.org/2000/svg">
<path d="M23.0375 13.7078L23.0315 9.75426C23.0314 9.68669 22.9765 9.632 22.9089 9.63211L10.9807 9.65048C10.9132 9.65059 10.8583 9.5959 10.8582 9.52833L10.8511 4.89225C10.8509 4.77952 10.7113 4.72699 10.6369 4.81166L4.63157 11.6425C4.59118 11.6884 4.59094 11.7572 4.63101 11.8034L10.6575 18.7563C10.7318 18.842 10.8725 18.7893 10.8723 18.676L10.8651 13.9713C10.865 13.9037 10.9196 13.8489 10.9872 13.8488L22.9154 13.8304C22.983 13.8303 23.0376 13.7754 23.0375 13.7078Z" stroke="white" stroke-width="1.10106"/>
<path d="M23.05 6.0498V2.5498C23.05 1.44524 22.1546 0.549805 21.05 0.549805H2.55005C1.44548 0.549805 0.550049 1.44524 0.550049 2.5498V20.5498C0.550049 21.6544 1.44548 22.5498 2.55005 22.5498H21.05C22.1546 22.5498 23.05 21.6544 23.05 20.5498V18.0498" stroke="white" stroke-width="1.1"/>
</svg>
